<?xml version="1.0" encoding="UTF-8" standalone="no"?>
<svg
   width="128"
   height="128"
   viewBox="0 0 456 456"
   version="1.1"
   xml:space="preserve"
   style="fill-rule:evenodd;clip-rule:evenodd;stroke-linejoin:round;stroke-miterlimit:2;"
   id="svg10"
   sodipodi:docname="splash.svg"
   inkscape:version="1.2.2 (732a01da63, 2022-12-09)"
   xmlns:inkscape="http://www.inkscape.org/namespaces/inkscape"
   xmlns:sodipodi="http://sodipodi.sourceforge.net/DTD/sodipodi-0.dtd"
   xmlns="http://www.w3.org/2000/svg"
   xmlns:svg="http://www.w3.org/2000/svg"><defs
   id="defs14"><inkscape:path-effect
     effect="fillet_chamfer"
     id="path-effect4845"
     is_visible="true"
     lpeversion="1"
     nodesatellites_param="F,0,0,1,0,3.96875,0,1 @ F,0,0,1,0,3.96875,0,1 @ F,0,0,1,0,3.96875,0,1 @ F,0,0,1,0,3.96875,0,1 @ F,0,0,1,0,3.96875,0,1 @ F,0,0,1,0,3.96875,0,1 @ F,0,0,1,0,3.96875,0,1 @ F,0,0,1,0,3.96875,0,1 @ F,0,0,1,0,3.96875,0,1 @ F,0,0,1,0,3.96875,0,1 @ F,0,0,1,0,3.96875,0,1 @ F,0,0,1,0,3.96875,0,1 @ F,0,0,1,0,3.96875,0,1 @ F,0,0,1,0,3.96875,0,1 @ F,0,0,1,0,3.96875,0,1"
     unit="px"
     method="auto"
     mode="F"
     radius="15"
     chamfer_steps="1"
     flexible="false"
     use_knot_distance="true"
     apply_no_radius="true"
     apply_with_radius="true"
     only_selected="false"
     hide_knots="false" /><inkscape:path-effect
     effect="fillet_chamfer"
     id="path-effect4845-4-3-01"
     is_visible="true"
     lpeversion="1"
     nodesatellites_param="F,0,0,1,0,3.96875,0,1 @ F,0,0,1,0,3.96875,0,1 @ F,0,0,1,0,3.96875,0,1 @ F,0,0,1,0,3.96875,0,1 @ F,0,0,1,0,3.96875,0,1 @ F,0,0,1,0,3.96875,0,1 @ F,0,0,1,0,3.96875,0,1"
     unit="px"
     method="auto"
     mode="F"
     radius="15"
     chamfer_steps="1"
     flexible="false"
     use_knot_distance="true"
     apply_no_radius="true"
     apply_with_radius="true"
     only_selected="false"
     hide_knots="false" /><inkscape:path-effect
     effect="fillet_chamfer"
     id="path-effect4845-4-3-01-2"
     is_visible="true"
     lpeversion="1"
     nodesatellites_param="F,0,0,1,0,3.96875,0,1 @ F,0,0,1,0,3.96875,0,1 @ F,0,0,1,0,3.96875,0,1 @ F,0,0,1,0,3.96875,0,1 @ F,0,0,1,0,3.96875,0,1 @ F,0,0,1,0,3.96875,0,1 @ F,0,0,1,0,3.96875,0,1"
     unit="px"
     method="auto"
     mode="F"
     radius="15"
     chamfer_steps="1"
     flexible="false"
     use_knot_distance="true"
     apply_no_radius="true"
     apply_with_radius="true"
     only_selected="false"
     hide_knots="false" /></defs><sodipodi:namedview
   id="namedview12"
   pagecolor="#ffffff"
   bordercolor="#000000"
   borderopacity="0.25"
   inkscape:showpageshadow="2"
   inkscape:pageopacity="0.0"
   inkscape:pagecheckerboard="0"
   inkscape:deskcolor="#d1d1d1"
   showgrid="false"
   inkscape:zoom="1.9307419"
   inkscape:cx="103.58712"
   inkscape:cy="65.518855"
   inkscape:window-width="1368"
   inkscape:window-height="850"
   inkscape:window-x="-6"
   inkscape:window-y="-6"
   inkscape:window-maximized="1"
   inkscape:current-layer="svg10" />
    
    
    
    
<path
   style="fill:#fca311;fill-opacity:1;stroke-width:2.91541"
   d="M 22.848165,56.265861 C 148.47681,181.89409 399.73403,56.265849 399.73403,433.15054 274.10542,307.52232 399.73403,56.265849 22.848165,56.265861 Z"
   id="path341"
   sodipodi:nodetypes="ccc" /><path
   style="fill:#fca311;fill-opacity:1;stroke-width:1.32958"
   d="m 22.873047,424.48245 8.643227,8.64319 a 3.9687622,3.9687622 179.99999 0 0 5.612669,0 l 65.453617,-65.45342 a 1.6439134,1.6439134 22.500041 0 1 2.80633,1.16242 v 27.59557 a 1.6439138,1.6439138 22.500046 0 0 2.80633,1.16242 l 47.68708,-47.68691 a 9.5813885,9.5813885 112.50005 0 0 2.80633,-6.77508 v -27.5955 a 9.5813748,9.5813748 112.50007 0 1 2.80634,-6.77507 L 348.21394,122.04206 a 2.523935,2.523935 12.545742 0 1 4.15779,0.92524 l 6.74436,18.62232 a 0.90341229,0.90341229 172.91514 0 0 1.74831,-0.2173 l 4.76913,-47.454079 a 3.2438841,3.2438841 45.000024 0 0 -3.552,-3.552002 l -47.45425,4.769108 a 0.90340633,0.90340633 97.084825 0 0 -0.21729,1.748294 l 18.6224,6.744359 a 2.523921,2.523921 77.454287 0 1 0.92524,4.15777 L 147.23904,294.5042 a 9.5814157,9.5814157 157.50001 0 1 -6.77508,2.80633 h -27.59564 a 9.581428,9.581428 157.50004 0 0 -6.77508,2.80633 l -47.687027,47.68689 a 1.643907,1.643907 67.500038 0 0 1.162416,2.80633 l 27.59564,0 a 1.6439057,1.6439057 67.500054 0 1 1.162415,2.80632 l -65.453637,65.4534 a 3.968736,3.968736 90.000007 0 0 0,5.61265 z"
   id="path3219"
   sodipodi:nodetypes="cccccccccccccccc"
   inkscape:path-effect="#path-effect4845"
   inkscape:original-d="m 20.066712,421.67612 14.255897,14.25585 71.066281,-71.06608 v 35.53307 l 53.29974,-53.29957 v -35.533 l 192.33165,-192.33065 9.44726,26.08544 5.56285,-55.351797 -55.35197,5.56282 26.08554,9.447237 -192.33125,192.33109 h -35.53314 l -53.299691,53.29955 h 35.53314 z" /><path
   style="fill:#fca311;fill-opacity:1;stroke-width:1.32958"
   d="m 22.848153,416.98852 v 12.22331 a 3.96875,3.96875 45 0 0 3.96875,3.96875 l 395.782647,0 a 2.5244956,2.5244956 57.53983 0 1 2.28648,3.59457 l -8.3943,17.93651 a 0.9038219,0.9038219 37.909091 0 0 1.3906,1.08291 l 36.92671,-30.18274 a 3.24393,3.24393 89.999992 0 0 0,-5.02332 l -36.92671,-30.18272 a 0.90382217,0.90382217 142.0909 0 0 -1.3906,1.08291 l 8.3943,17.9365 a 2.5244952,2.5244952 122.46017 0 1 -2.28648,3.59457 H 26.816903 a 3.96875,3.96875 135 0 0 -3.96875,3.96875 z"
   id="path3219-3-0-7"
   sodipodi:nodetypes="cccccccc"
   inkscape:path-effect="#path-effect4845-4-3-01"
   inkscape:original-d="m 22.848153,413.01977 v 20.16081 H 426.5683 l -11.75884,25.12565 43.07245,-35.20606 -43.07245,-35.20604 11.75884,25.12564 z" /><path
   style="fill:#fca311;fill-opacity:1;stroke-width:1.32958"
   d="m 26.786849,433.15052 12.22337,0 a 3.96875,3.96875 135 0 0 3.96875,-3.96875 V 33.400413 a 2.5245025,2.5245025 147.53976 0 1 3.594578,-2.286493 l 17.936556,8.394279 a 0.90382144,0.90382144 127.90894 0 0 1.082905,-1.390604 L 35.410188,1.1909748 a 3.2439487,3.2439487 180 0 0 -5.023346,1e-7 L 0.20402475,38.117595 A 0.90382265,0.90382265 52.091072 0 0 1.2869303,39.508201 L 19.22352,31.113918 a 2.524504,2.524504 32.460256 0 1 3.594579,2.286495 V 429.18177 a 3.96875,3.96875 45 0 0 3.96875,3.96875 z"
   id="path3219-3-0-7-9"
   sodipodi:nodetypes="cccccccc"
   inkscape:path-effect="#path-effect4845-4-3-01-2"
   inkscape:original-d="m 22.818099,433.15052 h 20.16087 V 29.431663 L 68.104681,41.190456 32.898515,-1.8818861 -2.3076484,41.190456 22.818099,29.431663 Z" /></svg>
